<svg xmlns="http://www.w3.org/2000/svg" viewBox="-49 21 200 60" enable-background="new -49 21 200 60"><style type="text/css">.st0{fill:#FFFFFF;}</style><path class="st0" d="M17.4 52.8V62h-4.8V37.6h9.2c4.8 0 8 3.2 8 7.6 0 4.5-3.2 7.6-8 7.6h-4.4zm3.8-4.1c2.4 0 3.8-1.4 3.8-3.5 0-2.2-1.5-3.5-3.8-3.5h-3.8v7h3.8zM42.3 49.6c-.5-.1-1-.1-1.4-.1-2.3 0-4.4 1.1-4.4 4.8v7.8H32v-17h4.5v2.5c1-2.2 3.4-2.7 4.8-2.7.4 0 .7 0 1.1.1v4.6zM61.2 53.6c0 5.2-3.8 9-8.9 9-5.1 0-8.9-3.8-8.9-9s3.8-9 8.9-9c5-.1 8.9 3.7 8.9 9zm-4.6 0c0-3.2-2.1-4.8-4.3-4.8S48 50.4 48 53.6c0 3.2 2.1 4.8 4.3 4.8s4.3-1.6 4.3-4.8zM64 68.6V45.1h4.5v2.1c.8-1.3 2.7-2.5 5.2-2.5 5 0 7.8 3.8 7.8 8.8 0 5.1-3.2 8.9-8 8.9-2.3 0-4.1-.9-4.9-2.1v8.2H64zm8.8-19.8c-2.3 0-4.2 1.8-4.2 4.8s1.9 4.8 4.2 4.8c2.3 0 4.2-1.8 4.2-4.8s-1.9-4.8-4.2-4.8zM99.6 57.2c-.9 2.9-3.6 5.4-7.7 5.4-4.7 0-8.8-3.3-8.8-9.1 0-5.4 4-8.9 8.4-8.9 5.2 0 8.4 3.3 8.4 8.8 0 .7-.1 1.3-.1 1.4H87.6c.1 2.2 2 3.9 4.3 3.9 2.1 0 3.3-1.1 3.9-2.6l3.8 1.1zm-4.3-5.6c-.1-1.7-1.2-3.3-3.8-3.3-2.4 0-3.7 1.8-3.8 3.3h7.6zM102.7 62.1v-25h4.6v25h-4.6zM111.4 62.1v-25h4.6v25h-4.6zM135.3 57.2c-.9 2.9-3.6 5.4-7.7 5.4-4.7 0-8.8-3.3-8.8-9.1 0-5.4 4-8.9 8.4-8.9 5.2 0 8.4 3.3 8.4 8.8 0 .7-.1 1.3-.1 1.4h-12.2c.1 2.2 2 3.9 4.3 3.9 2.1 0 3.3-1.1 3.9-2.6l3.8 1.1zm-4.3-5.6c-.1-1.7-1.2-3.3-3.8-3.3-2.4 0-3.7 1.8-3.8 3.3h7.6zM148.7 49.6c-.5-.1-1-.1-1.4-.1-2.3 0-4.4 1.1-4.4 4.8v7.8h-4.6v-17h4.5v2.5c1-2.2 3.4-2.7 4.8-2.7.4 0 .7 0 1.1.1v4.6z"/><circle class="st0" cx="-40.6" cy="40.8" r="3.7"/><circle class="st0" cx="-5.9" cy="60.8" r="3.7"/><circle class="st0" cx="-43.3" cy="50.8" r="3.7"/><circle class="st0" cx="-3.2" cy="50.8" r="3.7"/><circle class="st0" cx="-40.6" cy="60.8" r="3.7"/><circle class="st0" cx="-5.9" cy="40.8" r="3.7"/><circle class="st0" cx="-33.2" cy="68.1" r="3.7"/><circle class="st0" cx="-13.2" cy="33.4" r="3.7"/><circle class="st0" cx="-23.2" cy="70.8" r="3.7"/><circle class="st0" cx="-23.2" cy="30.7" r="3.7"/><circle class="st0" cx="-13.2" cy="68.1" r="3.7"/><circle class="st0" cx="-33.2" cy="33.4" r="3.7"/><circle class="st0" cx="-35.7" cy="47.4" r="2.3"/><circle class="st0" cx="-10.7" cy="54.1" r="2.3"/><circle class="st0" cx="-35.7" cy="54.1" r="2.3"/><circle class="st0" cx="-10.7" cy="47.4" r="2.3"/><circle class="st0" cx="-32.4" cy="59.9" r="2.3"/><circle class="st0" cx="-14.1" cy="41.6" r="2.3"/><circle class="st0" cx="-26.6" cy="63.3" r="2.3"/><circle class="st0" cx="-19.9" cy="38.3" r="2.3"/><circle class="st0" cx="-19.9" cy="63.3" r="2.3"/><circle class="st0" cx="-26.6" cy="38.3" r="2.3"/><circle class="st0" cx="-14.1" cy="59.9" r="2.3"/><circle class="st0" cx="-32.4" cy="41.6" r="2.3"/><circle class="st0" cx="-29.7" cy="47.1" r="1.4"/><circle class="st0" cx="-16.8" cy="54.5" r="1.4"/><circle class="st0" cx="-30.7" cy="50.8" r="1.4"/><circle class="st0" cx="-15.8" cy="50.8" r="1.4"/><circle class="st0" cx="-29.7" cy="54.5" r="1.4"/><circle class="st0" cx="-16.8" cy="47.1" r="1.4"/><circle class="st0" cx="-26.9" cy="57.2" r="1.4"/><circle class="st0" cx="-19.5" cy="44.3" r="1.4"/><circle class="st0" cx="-23.2" cy="58.2" r="1.4"/><circle class="st0" cx="-23.2" cy="43.3" r="1.4"/><circle class="st0" cx="-19.5" cy="57.2" r="1.4"/><circle class="st0" cx="-26.9" cy="44.3" r="1.4"/></svg>