<?xml version="1.0" encoding="utf-8"?>
<!-- Generator: Adobe Illustrator 19.1.0, SVG Export Plug-In . SVG Version: 6.00 Build 0)  -->
<svg version="1.1" id="Layer_1" xmlns="http://www.w3.org/2000/svg" xmlns:xlink="http://www.w3.org/1999/xlink" x="0px" y="0px"
	 viewBox="0 0 120 120" style="enable-background:new 0 0 120 120;" xml:space="preserve">
<style type="text/css">
	.st0{fill:#20C3F3;}
</style>
<g>
	<g>
		<circle class="st0" cx="21.6" cy="37.9" r="8.2"/>
		<circle class="st0" cx="98.3" cy="82.2" r="8.2"/>
		<circle class="st0" cx="15.7" cy="60.1" r="8.2"/>
		<circle class="st0" cx="104.2" cy="60.1" r="8.2"/>
		<circle class="st0" cx="21.6" cy="82.2" r="8.2"/>
		<circle class="st0" cx="98.3" cy="37.9" r="8.2"/>
		<circle class="st0" cx="37.8" cy="98.4" r="8.2"/>
		<circle class="st0" cx="82.1" cy="21.7" r="8.2"/>
		<circle class="st0" cx="60" cy="104.3" r="8.2"/>
		<circle class="st0" cx="60" cy="15.8" r="8.2"/>
		<circle class="st0" cx="82.1" cy="98.4" r="8.2"/>
		<circle class="st0" cx="37.8" cy="21.7" r="8.2"/>
	</g>
	<g>
		<circle class="st0" cx="32.4" cy="52.7" r="5.1"/>
		<circle class="st0" cx="87.5" cy="67.4" r="5.1"/>
		<circle class="st0" cx="32.4" cy="67.4" r="5.1"/>
		<circle class="st0" cx="87.5" cy="52.7" r="5.1"/>
		<circle class="st0" cx="39.8" cy="80.2" r="5.1"/>
		<circle class="st0" cx="80.2" cy="39.9" r="5.1"/>
		<circle class="st0" cx="52.6" cy="87.6" r="5.1"/>
		<circle class="st0" cx="67.4" cy="32.5" r="5.1"/>
		<circle class="st0" cx="67.4" cy="87.6" r="5.1"/>
		<circle class="st0" cx="52.6" cy="32.5" r="5.1"/>
		<circle class="st0" cx="80.2" cy="80.2" r="5.1"/>
		<circle class="st0" cx="39.8" cy="39.9" r="5.1"/>
	</g>
	<g>
		<circle class="st0" cx="45.7" cy="51.8" r="3.1"/>
		<circle class="st0" cx="74.2" cy="68.3" r="3.1"/>
		<circle class="st0" cx="43.5" cy="60.1" r="3.1"/>
		<circle class="st0" cx="76.4" cy="60.1" r="3.1"/>
		<circle class="st0" cx="45.7" cy="68.3" r="3.1"/>
		<circle class="st0" cx="74.2" cy="51.8" r="3.1"/>
		<circle class="st0" cx="51.7" cy="74.3" r="3.1"/>
		<circle class="st0" cx="68.2" cy="45.8" r="3.1"/>
		<circle class="st0" cx="60" cy="76.5" r="3.1"/>
		<circle class="st0" cx="60" cy="43.6" r="3.1"/>
		<circle class="st0" cx="68.2" cy="74.3" r="3.1"/>
		<circle class="st0" cx="51.7" cy="45.8" r="3.1"/>
	</g>
</g>
</svg>
