<?xml version="1.0" encoding="utf-8"?>
<!-- Generator: Adobe Illustrator 19.1.0, SVG Export Plug-In . SVG Version: 6.00 Build 0)  -->
<svg version="1.1" id="Layer_1" xmlns="http://www.w3.org/2000/svg" xmlns:xlink="http://www.w3.org/1999/xlink" x="0px" y="0px"
	 viewBox="-683 521 144 40" style="enable-background:new -683 521 144 40;" xml:space="preserve">
<style type="text/css">
	.st0{fill:#20C3F3;}
</style>
<g>
	<g>
		<path class="st0" d="M-635.9,542.9v6.7h-3.5v-17.9h6.7c3.5,0,5.9,2.3,5.9,5.6s-2.3,5.6-5.9,5.6H-635.9z M-633.2,539.9
			c1.7,0,2.8-1,2.8-2.5c0-1.6-1.1-2.6-2.8-2.6h-2.8v5.1H-633.2z"/>
		<path class="st0" d="M-617.7,540.5c-0.4-0.1-0.7-0.1-1-0.1c-1.7,0-3.2,0.8-3.2,3.5v5.7h-3.4v-12.4h3.3v1.8
			c0.8-1.6,2.5-1.9,3.5-1.9c0.3,0,0.5,0,0.8,0.1V540.5z"/>
		<path class="st0" d="M-603.9,543.4c0,3.8-2.8,6.6-6.5,6.6c-3.7,0-6.5-2.8-6.5-6.6c0-3.8,2.8-6.6,6.5-6.6
			C-606.7,536.8-603.9,539.6-603.9,543.4z M-607.3,543.4c0-2.3-1.5-3.5-3.2-3.5c-1.6,0-3.2,1.2-3.2,3.5c0,2.3,1.5,3.5,3.2,3.5
			C-608.8,547-607.3,545.8-607.3,543.4z"/>
		<path class="st0" d="M-601.9,554.4v-17.2h3.3v1.5c0.6-1,1.9-1.8,3.8-1.8c3.6,0,5.7,2.8,5.7,6.5c0,3.8-2.3,6.5-5.9,6.5
			c-1.7,0-3-0.7-3.6-1.5v6H-601.9z M-595.4,539.9c-1.7,0-3.1,1.3-3.1,3.5c0,2.2,1.4,3.5,3.1,3.5c1.7,0,3.1-1.3,3.1-3.5
			C-592.4,541.2-593.7,539.9-595.4,539.9z"/>
		<path class="st0" d="M-575.8,546.1c-0.6,2.1-2.6,3.9-5.7,3.9c-3.4,0-6.4-2.4-6.4-6.6c0-4,2.9-6.5,6.1-6.5c3.8,0,6.1,2.4,6.1,6.4
			c0,0.5-0.1,1-0.1,1h-8.9c0.1,1.6,1.5,2.8,3.1,2.8c1.6,0,2.4-0.8,2.8-1.9L-575.8,546.1z M-579,542c-0.1-1.2-0.9-2.4-2.8-2.4
			c-1.7,0-2.7,1.3-2.8,2.4H-579z"/>
		<path class="st0" d="M-573.6,549.6v-18.3h3.4v18.3C-570.2,549.6-573.6,549.6-573.6,549.6z"/>
		<path class="st0" d="M-567.2,549.6v-18.3h3.4v18.3C-563.8,549.6-567.2,549.6-567.2,549.6z"/>
		<path class="st0" d="M-549.7,546.1c-0.6,2.1-2.6,3.9-5.7,3.9c-3.4,0-6.4-2.4-6.4-6.6c0-4,2.9-6.5,6.1-6.5c3.8,0,6.1,2.4,6.1,6.4
			c0,0.5-0.1,1-0.1,1h-8.9c0.1,1.6,1.5,2.8,3.1,2.8s2.4-0.8,2.8-1.9L-549.7,546.1z M-552.9,542c-0.1-1.2-0.9-2.4-2.8-2.4
			c-1.7,0-2.7,1.3-2.8,2.4H-552.9z"/>
		<path class="st0" d="M-539.9,540.5c-0.4-0.1-0.7-0.1-1-0.1c-1.7,0-3.2,0.8-3.2,3.5v5.7h-3.4v-12.4h3.3v1.8
			c0.8-1.6,2.5-1.9,3.5-1.9c0.3,0,0.5,0,0.8,0.1L-539.9,540.5L-539.9,540.5z"/>
	</g>
	<g>
		<g>
			<circle class="st0" cx="-678.3" cy="534.1" r="2.7"/>
			<circle class="st0" cx="-652.9" cy="548.7" r="2.7"/>
			<circle class="st0" cx="-680.3" cy="541.4" r="2.7"/>
			<circle class="st0" cx="-651" cy="541.4" r="2.7"/>
			<circle class="st0" cx="-678.3" cy="548.7" r="2.7"/>
			<circle class="st0" cx="-652.9" cy="534.1" r="2.7"/>
			<circle class="st0" cx="-672.9" cy="554.1" r="2.7"/>
			<circle class="st0" cx="-658.3" cy="528.7" r="2.7"/>
			<circle class="st0" cx="-665.6" cy="556" r="2.7"/>
			<circle class="st0" cx="-665.6" cy="526.7" r="2.7"/>
			<circle class="st0" cx="-658.3" cy="554.1" r="2.7"/>
			<circle class="st0" cx="-672.9" cy="528.7" r="2.7"/>
		</g>
		<g>
			<circle class="st0" cx="-674.8" cy="538.9" r="1.7"/>
			<circle class="st0" cx="-656.5" cy="543.8" r="1.7"/>
			<circle class="st0" cx="-674.8" cy="543.8" r="1.7"/>
			<circle class="st0" cx="-656.5" cy="538.9" r="1.7"/>
			<circle class="st0" cx="-672.3" cy="548.1" r="1.7"/>
			<circle class="st0" cx="-658.9" cy="534.7" r="1.7"/>
			<circle class="st0" cx="-668.1" cy="550.5" r="1.7"/>
			<circle class="st0" cx="-663.2" cy="532.2" r="1.7"/>
			<circle class="st0" cx="-663.2" cy="550.5" r="1.7"/>
			<circle class="st0" cx="-668.1" cy="532.2" r="1.7"/>
			<circle class="st0" cx="-658.9" cy="548.1" r="1.7"/>
			<circle class="st0" cx="-672.3" cy="534.7" r="1.7"/>
		</g>
		<g>
			<circle class="st0" cx="-670.3" cy="538.7" r="1"/>
			<circle class="st0" cx="-660.9" cy="544.1" r="1"/>
			<circle class="st0" cx="-671.1" cy="541.4" r="1"/>
			<circle class="st0" cx="-660.2" cy="541.4" r="1"/>
			<circle class="st0" cx="-670.3" cy="544.1" r="1"/>
			<circle class="st0" cx="-660.9" cy="538.7" r="1"/>
			<circle class="st0" cx="-668.3" cy="546.1" r="1"/>
			<circle class="st0" cx="-662.9" cy="536.7" r="1"/>
			<circle class="st0" cx="-665.6" cy="546.8" r="1"/>
			<circle class="st0" cx="-665.6" cy="535.9" r="1"/>
			<circle class="st0" cx="-662.9" cy="546.1" r="1"/>
			<circle class="st0" cx="-668.3" cy="536.7" r="1"/>
		</g>
	</g>
</g>
</svg>
